<svg width="48" height="48" viewBox="0 0 48 48" fill="none" xmlns="http://www.w3.org/2000/svg">
<rect width="48" height="48" fill="#323238"/>
<path d="M33 13H15C13.895 13 13 13.895 13 15V33C13 34.105 13.895 35 15 35H33C34.105 35 35 34.105 35 33V15C35 13.895 34.105 13 33 13ZM19.954 31H17.004V21.508H19.954V31ZM18.449 20.151C17.498 20.151 16.729 19.38 16.729 18.431C16.729 17.482 17.499 16.712 18.449 16.712C19.397 16.712 20.168 17.483 20.168 18.431C20.168 19.38 19.397 20.151 18.449 20.151ZM31.004 31H28.056V26.384C28.056 25.283 28.036 23.867 26.523 23.867C24.988 23.867 24.752 25.066 24.752 26.304V31H21.804V21.508H24.634V22.805H24.674C25.068 22.059 26.03 21.272 27.465 21.272C30.452 21.272 31.004 23.238 31.004 25.794V31V31Z" fill="white"/>
</svg>
